<?xml version="1.0" encoding="UTF-8"?>
<svg width="294px" height="287px" viewBox="0 0 294 287" version="1.1" xmlns="http://www.w3.org/2000/svg" xmlns:xlink="http://www.w3.org/1999/xlink">
    <!-- Generator: sketchtool 53.2 (72643) - https://sketchapp.com -->
    <title>F53ACCE8-FB7B-4BE1-84ED-93498F3D60B2</title>
    <desc>Created with sketchtool.</desc>
    <g id="UI-Designs" stroke="none" stroke-width="1" fill="none" fill-rule="evenodd">
        <g id="Sign-in---email-address" transform="translate(-74.000000, -198.000000)">
            <g id="Group-43" transform="translate(74.000000, 198.000000)">
                <g id="extra" fill="#A3A6A8" fill-opacity="0.2">
                    <path d="M274.060131,31.4123412 C274.060131,38.0444671 268.706002,43.4199797 262.102723,43.4199797 C255.49834,43.4199797 250.145314,38.0444671 250.145314,31.4123412 C250.145314,24.7802154 255.49834,19.4047028 262.102723,19.4047028 C268.706002,19.4047028 274.060131,24.7802154 274.060131,31.4123412" id="Fill-4"></path>
                    <path d="M47.1657735,237.77972 C47.1657735,243.199558 42.7904391,247.593272 37.3932738,247.593272 C31.9961085,247.593272 27.6196706,243.199558 27.6196706,237.77972 C27.6196706,232.359883 31.9961085,227.966169 37.3932738,227.966169 C42.7904391,227.966169 47.1657735,232.359883 47.1657735,237.77972" id="Fill-6"></path>
                    <path d="M257.945217,268.6667 C257.945217,271.770557 255.439193,274.287108 252.34832,274.287108 C249.257447,274.287108 246.751423,271.770557 246.751423,268.6667 C246.751423,265.562843 249.257447,263.046292 252.34832,263.046292 C255.439193,263.046292 257.945217,265.562843 257.945217,268.6667" id="Fill-8"></path>
                    <path d="M36.773775,127.80644 C36.773775,130.910297 34.2677512,133.426849 31.1768782,133.426849 C28.0860051,133.426849 25.5799813,130.910297 25.5799813,127.80644 C25.5799813,124.702583 28.0860051,122.186032 31.1768782,122.186032 C34.2677512,122.186032 36.773775,124.702583 36.773775,127.80644" id="Fill-10"></path>
                    <path d="M264.90095,247.593604 C264.90095,249.146087 263.64849,250.403809 262.102502,250.403809 C260.556514,250.403809 259.304054,249.146087 259.304054,247.593604 C259.304054,246.041122 260.556514,244.7834 262.102502,244.7834 C263.64849,244.7834 264.90095,246.041122 264.90095,247.593604" id="Fill-12"></path>
                    <path d="M185.214911,2.81075812 C185.214911,4.36324072 183.962451,5.62096217 182.416463,5.62096217 C180.870474,5.62096217 179.618014,4.36324072 179.618014,2.81075812 C179.618014,1.25827551 180.870474,0.000554062314 182.416463,0.000554062314 C183.962451,0.000554062314 185.214911,1.25827551 185.214911,2.81075812" id="Fill-14"></path>
                    <path d="M5.59700718,158.996824 C5.59700718,160.549307 4.34454702,161.807028 2.79855876,161.807028 C1.2525705,161.807028 0.000110348912,160.549307 0.000110348912,158.996824 C0.000110348912,157.444342 1.2525705,156.18662 2.79855876,156.18662 C4.34454702,156.18662 5.59700718,157.444342 5.59700718,158.996824" id="Fill-16"></path>
                    <path d="M267.699509,61.6830925 C267.699509,63.2355751 266.447049,64.4932966 264.901061,64.4932966 C263.355072,64.4932966 262.102612,63.2355751 262.102612,61.6830925 C262.102612,60.1306099 263.355072,58.8728884 264.901061,58.8728884 C266.447049,58.8728884 267.699509,60.1306099 267.699509,61.6830925" id="Fill-18"></path>
                    <path d="M130.937702,259.601465 C130.937702,261.153947 129.685242,262.411669 128.139254,262.411669 C126.593265,262.411669 125.340805,261.153947 125.340805,259.601465 C125.340805,258.048982 126.593265,256.791261 128.139254,256.791261 C129.685242,256.791261 130.937702,258.048982 130.937702,259.601465" id="Fill-20"></path>
                    <path d="M106.001827,281.441825 L95.0629395,281.441825 C94.1492505,281.441825 93.4077058,280.698274 93.4077058,279.779638 C93.4077058,278.861003 94.1492505,278.117451 95.0629395,278.117451 L106.001827,278.117451 C106.915516,278.117451 107.657061,278.861003 107.657061,279.779638 C107.657061,280.698274 106.915516,281.441825 106.001827,281.441825" id="Fill-26"></path>
                    <path d="M100.532935,286.934356 C99.6192461,286.934356 98.8777014,286.190804 98.8777014,285.272169 L98.8777014,274.287329 C98.8777014,273.368694 99.6192461,272.625142 100.532935,272.625142 C101.446624,272.625142 102.188169,273.368694 102.188169,274.287329 L102.188169,285.272169 C102.188169,286.190804 101.446624,286.934356 100.532935,286.934356" id="Fill-28"></path>
                </g>
                <path d="M90.5864681,135.587903 L55.4218326,135.587903 C50.2669654,135.587903 46.0885945,131.408456 46.0885945,126.254665 L46.0885945,44.6327034 C46.0885945,39.4778361 50.2669654,35.2994652 55.4218326,35.2994652 L90.5864681,35.2994652 C95.7402588,35.2994652 99.9197063,39.4778361 99.9197063,44.6327034 L99.9197063,126.254665 C99.9197063,131.408456 95.7402588,135.587903 90.5864681,135.587903" id="Fill-1" fill="#FEFEFE"></path>
                <g id="Group" transform="translate(50.395083, 79.440977)" fill="#FCC135">
                    <path d="M42.1590038,11.8428446 L1.44419673,11.8428446 C0.646602621,11.8428446 0,11.619543 0,11.3442078 L0,0.498747475 C0,0.223301589 0.646602621,0 1.44419673,0 L42.1590038,0 C42.956598,0 43.6032006,0.223301589 43.6032006,0.498747475 L43.6032006,11.3442078 C43.6032006,11.619543 42.956598,11.8428446 42.1590038,11.8428446" id="Fill-29" opacity="0.1"></path>
                    <path d="M7.59931472,6.11683661 C7.55584439,6.17093119 7.5086852,6.21949099 7.4578359,6.26251732 C7.40392639,6.30813307 7.34172403,6.35167472 7.27122696,6.39314358 L6.20133571,7.00895308 L5.9276426,6.54243073 L6.99753385,5.92040093 C7.154917,5.82514271 7.31229779,5.77538612 7.46968093,5.77112967 C7.37554366,5.76047922 7.30183637,5.74558195 7.23079503,5.72446155 C7.15407764,5.70165367 7.07632469,5.66536896 6.99753385,5.61560633 L5.9214223,4.98735623 L6.19511541,4.52083388 L7.27122696,5.14286368 C7.34587091,5.18847943 7.4122201,5.2361679 7.4702765,5.28593054 C7.5283329,5.33569317 7.5801682,5.39582212 7.62578395,5.46631918 C7.55943377,5.32117817 7.52625918,5.16567227 7.52625918,4.99979683 L7.52625918,3.76817783 L8.07364541,3.76817783 L8.07364541,4.99357653 C8.07364541,5.07651425 8.06846188,5.1542672 8.05809466,5.22683771 C8.04773751,5.29933774 8.02599889,5.3687326 7.99287815,5.43502438 C8.04404765,5.3713093 8.09121262,5.32274229 8.14206868,5.27971024 C8.1959782,5.23409449 8.25818056,5.18847943 8.32867762,5.14286368 L9.39856888,4.52705418 L9.67226199,4.99357653 L8.60237073,5.61560633 C8.53187367,5.66122208 8.46137767,5.69647008 8.3908806,5.7213514 C8.32042996,5.74621633 8.24583902,5.76279816 8.16710552,5.77109739 C8.25275282,5.78088637 8.32369919,5.79603085 8.3908806,5.81776602 C8.46137767,5.84057389 8.53187367,5.87478519 8.60237073,5.92040093 L9.67848229,6.54865103 L9.40478918,7.01517338 L8.32867762,6.39314358 C8.25403367,6.34752783 8.18768449,6.30191277 8.12962809,6.25629702 C8.07157168,6.21068128 8.01973638,6.15262574 7.97412064,6.08212868 C8.04047081,6.21897592 8.07364541,6.37033499 8.07364541,6.53621043 L8.07364541,7.76782944 L7.52625918,7.76782944 L7.52625918,6.54243073 C7.52625918,6.45949301 7.53144271,6.38277677 7.54180993,6.31227971 C7.55216703,6.2418514 7.57390551,6.17349352 7.60702602,6.10720402 L7.59931472,6.11683661 Z M13.1827728,6.11683661 C13.1393024,6.17093119 13.0921432,6.21949099 13.0412939,6.26251732 C12.9873844,6.30813307 12.9251821,6.35167472 12.854685,6.39314358 L11.7847937,7.00895308 L11.5111006,6.54243073 L12.5809919,5.92040093 C12.738375,5.82514271 12.8957558,5.77538612 13.053139,5.77112967 C12.9590017,5.76047922 12.8852944,5.74558195 12.8142531,5.72446155 C12.7375357,5.70165367 12.6597827,5.66536896 12.5809919,5.61560633 L11.5048803,4.98735623 L11.7785734,4.52083388 L12.854685,5.14286368 C12.9293289,5.18847943 12.9956781,5.2361679 13.0537345,5.28593054 C13.1117909,5.33569317 13.1636262,5.39582212 13.209242,5.46631918 C13.1428918,5.32117817 13.1097172,5.16567227 13.1097172,4.99979683 L13.1097172,3.76817783 L13.6571034,3.76817783 L13.6571034,4.99357653 C13.6571034,5.07651425 13.6519199,5.1542672 13.6415527,5.22683771 C13.6311955,5.29933774 13.6094569,5.3687326 13.5763362,5.43502438 C13.6275057,5.3713093 13.6746707,5.32274229 13.7255267,5.27971024 C13.7794362,5.23409449 13.8416386,5.18847943 13.9121357,5.14286368 L14.9820269,4.52705418 L15.25572,4.99357653 L14.1858288,5.61560633 C14.1153317,5.66122208 14.0448357,5.69647008 13.9743386,5.7213514 C13.903888,5.74621633 13.8292971,5.76279816 13.7505636,5.77109739 C13.8362109,5.78088637 13.9071572,5.79603085 13.9743386,5.81776602 C14.0448357,5.84057389 14.1153317,5.87478519 14.1858288,5.92040093 L15.2619403,6.54865103 L14.9882472,7.01517338 L13.9121357,6.39314358 C13.8374917,6.34752783 13.7711425,6.30191277 13.7130861,6.25629702 C13.6550297,6.21068128 13.6031944,6.15262574 13.5575787,6.08212868 C13.6239288,6.21897592 13.6571034,6.37033499 13.6571034,6.53621043 L13.6571034,7.76782944 L13.1097172,7.76782944 L13.1097172,6.54243073 C13.1097172,6.45949301 13.1149007,6.38277677 13.125268,6.31227971 C13.1356251,6.2418514 13.1573635,6.17349352 13.1904841,6.10720402 L13.1827728,6.11683661 Z M18.7662308,6.11683661 C18.7227605,6.17093119 18.6756013,6.21949099 18.624752,6.26251732 C18.5708425,6.30813307 18.5086401,6.35167472 18.438143,6.39314358 L17.3682518,7.00895308 L17.0945587,6.54243073 L18.1644499,5.92040093 C18.3218331,5.82514271 18.4792139,5.77538612 18.636597,5.77112967 C18.5424597,5.76047922 18.4687524,5.74558195 18.3977111,5.72446155 C18.3209937,5.70165367 18.2432408,5.66536896 18.1644499,5.61560633 L17.0883384,4.98735623 L17.3620315,4.52083388 L18.438143,5.14286368 C18.512787,5.18847943 18.5791362,5.2361679 18.6371926,5.28593054 C18.695249,5.33569317 18.7470843,5.39582212 18.7927,5.46631918 C18.7263498,5.32117817 18.6931753,5.16567227 18.6931753,4.99979683 L18.6931753,3.76817783 L19.2405615,3.76817783 L19.2405615,4.99357653 C19.2405615,5.07651425 19.2353779,5.1542672 19.2250107,5.22683771 C19.2146536,5.29933774 19.192915,5.3687326 19.1597942,5.43502438 C19.2109637,5.3713093 19.2581287,5.32274229 19.3089848,5.27971024 C19.3628943,5.23409449 19.4250966,5.18847943 19.4955937,5.14286368 L20.5654849,4.52705418 L20.8391781,4.99357653 L19.7692868,5.61560633 C19.6987897,5.66122208 19.6282937,5.69647008 19.5577967,5.7213514 C19.487346,5.74621633 19.4127551,5.76279816 19.3340216,5.77109739 C19.4196689,5.78088637 19.4906153,5.79603085 19.5577967,5.81776602 C19.6282937,5.84057389 19.6987897,5.87478519 19.7692868,5.92040093 L20.8453984,6.54865103 L20.5717052,7.01517338 L19.4955937,6.39314358 C19.4209497,6.34752783 19.3546006,6.30191277 19.2965442,6.25629702 C19.2384878,6.21068128 19.1866525,6.15262574 19.1410367,6.08212868 C19.2073869,6.21897592 19.2405615,6.37033499 19.2405615,6.53621043 L19.2405615,7.76782944 L18.6931753,7.76782944 L18.6931753,6.54243073 C18.6931753,6.45949301 18.6983588,6.38277677 18.708726,6.31227971 C18.7190831,6.2418514 18.7408216,6.17349352 18.7739421,6.10720402 L18.7662308,6.11683661 Z M24.3496888,6.11683661 C24.3062185,6.17093119 24.2590593,6.21949099 24.20821,6.26251732 C24.1543005,6.30813307 24.0920981,6.35167472 24.0216011,6.39314358 L22.9517098,7.00895308 L22.6780167,6.54243073 L23.747908,5.92040093 C23.9052911,5.82514271 24.0626719,5.77538612 24.220055,5.77112967 C24.1259178,5.76047922 24.0522105,5.74558195 23.9811691,5.72446155 C23.9044517,5.70165367 23.8266988,5.66536896 23.747908,5.61560633 L22.6717964,4.98735623 L22.9454895,4.52083388 L24.0216011,5.14286368 C24.096245,5.18847943 24.1625942,5.2361679 24.2206506,5.28593054 C24.278707,5.33569317 24.3305423,5.39582212 24.3761581,5.46631918 C24.3098079,5.32117817 24.2766333,5.16567227 24.2766333,4.99979683 L24.2766333,3.76817783 L24.8240195,3.76817783 L24.8240195,4.99357653 C24.8240195,5.07651425 24.818836,5.1542672 24.8084688,5.22683771 C24.7981116,5.29933774 24.776373,5.3687326 24.7432523,5.43502438 C24.7944218,5.3713093 24.8415867,5.32274229 24.8924428,5.27971024 C24.9463523,5.23409449 25.0085547,5.18847943 25.0790517,5.14286368 L26.148943,4.52705418 L26.4226361,4.99357653 L25.3527448,5.61560633 C25.2822478,5.66122208 25.2117518,5.69647008 25.1412547,5.7213514 C25.0708041,5.74621633 24.9962131,5.76279816 24.9174796,5.77109739 C25.0031269,5.78088637 25.0740733,5.79603085 25.1412547,5.81776602 C25.2117518,5.84057389 25.2822478,5.87478519 25.3527448,5.92040093 L26.4288564,6.54865103 L26.1551633,7.01517338 L25.0790517,6.39314358 C25.0044078,6.34752783 24.9380586,6.30191277 24.8800022,6.25629702 C24.8219458,6.21068128 24.7701105,6.15262574 24.7244947,6.08212868 C24.7908449,6.21897592 24.8240195,6.37033499 24.8240195,6.53621043 L24.8240195,7.76782944 L24.2766333,7.76782944 L24.2766333,6.54243073 C24.2766333,6.45949301 24.2818168,6.38277677 24.292184,6.31227971 C24.3025411,6.2418514 24.3242796,6.17349352 24.3574001,6.10720402 L24.3496888,6.11683661 Z M29.9331469,6.11683661 C29.8896765,6.17093119 29.8425173,6.21949099 29.791668,6.26251732 C29.7377585,6.30813307 29.6755562,6.35167472 29.6050591,6.39314358 L28.5351679,7.00895308 L28.2614747,6.54243073 L29.331366,5.92040093 C29.4887491,5.82514271 29.6461299,5.77538612 29.8035131,5.77112967 C29.7093758,5.76047922 29.6356685,5.74558195 29.5646272,5.72446155 C29.4879098,5.70165367 29.4101568,5.66536896 29.331366,5.61560633 L28.2552544,4.98735623 L28.5289476,4.52083388 L29.6050591,5.14286368 C29.6797031,5.18847943 29.7460522,5.2361679 29.8041086,5.28593054 C29.862165,5.33569317 29.9140003,5.39582212 29.9596161,5.46631918 C29.8932659,5.32117817 29.8600913,5.16567227 29.8600913,4.99979683 L29.8600913,3.76817783 L30.4074775,3.76817783 L30.4074775,4.99357653 C30.4074775,5.07651425 30.402294,5.1542672 30.3919268,5.22683771 C30.3815697,5.29933774 30.359831,5.3687326 30.3267103,5.43502438 C30.3778798,5.3713093 30.4250448,5.32274229 30.4759008,5.27971024 C30.5298103,5.23409449 30.5920127,5.18847943 30.6625098,5.14286368 L31.732401,4.52705418 L32.0060941,4.99357653 L30.9362029,5.61560633 C30.8657058,5.66122208 30.7952098,5.69647008 30.7247127,5.7213514 C30.6542621,5.74621633 30.5796712,5.76279816 30.5009377,5.77109739 C30.586585,5.78088637 30.6575313,5.79603085 30.7247127,5.81776602 C30.7952098,5.84057389 30.8657058,5.87478519 30.9362029,5.92040093 L32.0123144,6.54865103 L31.7386213,7.01517338 L30.6625098,6.39314358 C30.5878658,6.34752783 30.5215166,6.30191277 30.4634602,6.25629702 C30.4054038,6.21068128 30.3535685,6.15262574 30.3079528,6.08212868 C30.374303,6.21897592 30.4074775,6.37033499 30.4074775,6.53621043 L30.4074775,7.76782944 L29.8600913,7.76782944 L29.8600913,6.54243073 C29.8600913,6.45949301 29.8652749,6.38277677 29.8756421,6.31227971 C29.8859992,6.2418514 29.9077377,6.17349352 29.9408582,6.10720402 L29.9331469,6.11683661 Z M35.5166049,6.11683661 C35.4731346,6.17093119 35.4259754,6.21949099 35.3751261,6.26251732 C35.3212166,6.30813307 35.2590142,6.35167472 35.1885171,6.39314358 L34.1186259,7.00895308 L33.8449328,6.54243073 L34.914824,5.92040093 C35.0722072,5.82514271 35.229588,5.77538612 35.3869711,5.77112967 C35.2928338,5.76047922 35.2191265,5.74558195 35.1480852,5.72446155 C35.0713678,5.70165367 34.9936149,5.66536896 34.914824,5.61560633 L33.8387125,4.98735623 L34.1124056,4.52083388 L35.1885171,5.14286368 C35.2631611,5.18847943 35.3295103,5.2361679 35.3875667,5.28593054 C35.4456231,5.33569317 35.4974584,5.39582212 35.5430741,5.46631918 C35.476724,5.32117817 35.4435494,5.16567227 35.4435494,4.99979683 L35.4435494,3.76817783 L35.9909356,3.76817783 L35.9909356,4.99357653 C35.9909356,5.07651425 35.9857521,5.1542672 35.9753848,5.22683771 C35.9650277,5.29933774 35.9432891,5.3687326 35.9101683,5.43502438 C35.9613378,5.3713093 36.0085028,5.32274229 36.0593589,5.27971024 C36.1132684,5.23409449 36.1754707,5.18847943 36.2459678,5.14286368 L37.3158591,4.52705418 L37.5895522,4.99357653 L36.5196609,5.61560633 C36.4491638,5.66122208 36.3786678,5.69647008 36.3081708,5.7213514 C36.2377201,5.74621633 36.1631292,5.76279816 36.0843957,5.77109739 C36.170043,5.78088637 36.2409894,5.79603085 36.3081708,5.81776602 C36.3786678,5.84057389 36.4491638,5.87478519 36.5196609,5.92040093 L37.5957725,6.54865103 L37.3220794,7.01517338 L36.2459678,6.39314358 C36.1713239,6.34752783 36.1049747,6.30191277 36.0469183,6.25629702 C35.9888619,6.21068128 35.9370266,6.15262574 35.8914108,6.08212868 C35.957761,6.21897592 35.9909356,6.37033499 35.9909356,6.53621043 L35.9909356,7.76782944 L35.4435494,7.76782944 L35.4435494,6.54243073 C35.4435494,6.45949301 35.4487329,6.38277677 35.4591001,6.31227971 C35.4694572,6.2418514 35.4911957,6.17349352 35.5243162,6.10720402 L35.5166049,6.11683661 Z" id="******"></path>
                </g>
                <g id="Group" transform="translate(28.862639, 145.114933)" fill="#FCC135">
                    <path d="M42.1590038,11.8428446 L1.44419673,11.8428446 C0.646602621,11.8428446 0,11.619543 0,11.3442078 L0,0.498747475 C0,0.223301589 0.646602621,0 1.44419673,0 L42.1590038,0 C42.956598,0 43.6032006,0.223301589 43.6032006,0.498747475 L43.6032006,11.3442078 C43.6032006,11.619543 42.956598,11.8428446 42.1590038,11.8428446" id="Fill-29" opacity="0.1"></path>
                    <path d="M7.59931472,6.11683661 C7.55584439,6.17093119 7.5086852,6.21949099 7.4578359,6.26251732 C7.40392639,6.30813307 7.34172403,6.35167472 7.27122696,6.39314358 L6.20133571,7.00895308 L5.9276426,6.54243073 L6.99753385,5.92040093 C7.154917,5.82514271 7.31229779,5.77538612 7.46968093,5.77112967 C7.37554366,5.76047922 7.30183637,5.74558195 7.23079503,5.72446155 C7.15407764,5.70165367 7.07632469,5.66536896 6.99753385,5.61560633 L5.9214223,4.98735623 L6.19511541,4.52083388 L7.27122696,5.14286368 C7.34587091,5.18847943 7.4122201,5.2361679 7.4702765,5.28593054 C7.5283329,5.33569317 7.5801682,5.39582212 7.62578395,5.46631918 C7.55943377,5.32117817 7.52625918,5.16567227 7.52625918,4.99979683 L7.52625918,3.76817783 L8.07364541,3.76817783 L8.07364541,4.99357653 C8.07364541,5.07651425 8.06846188,5.1542672 8.05809466,5.22683771 C8.04773751,5.29933774 8.02599889,5.3687326 7.99287815,5.43502438 C8.04404765,5.3713093 8.09121262,5.32274229 8.14206868,5.27971024 C8.1959782,5.23409449 8.25818056,5.18847943 8.32867762,5.14286368 L9.39856888,4.52705418 L9.67226199,4.99357653 L8.60237073,5.61560633 C8.53187367,5.66122208 8.46137767,5.69647008 8.3908806,5.7213514 C8.32042996,5.74621633 8.24583902,5.76279816 8.16710552,5.77109739 C8.25275282,5.78088637 8.32369919,5.79603085 8.3908806,5.81776602 C8.46137767,5.84057389 8.53187367,5.87478519 8.60237073,5.92040093 L9.67848229,6.54865103 L9.40478918,7.01517338 L8.32867762,6.39314358 C8.25403367,6.34752783 8.18768449,6.30191277 8.12962809,6.25629702 C8.07157168,6.21068128 8.01973638,6.15262574 7.97412064,6.08212868 C8.04047081,6.21897592 8.07364541,6.37033499 8.07364541,6.53621043 L8.07364541,7.76782944 L7.52625918,7.76782944 L7.52625918,6.54243073 C7.52625918,6.45949301 7.53144271,6.38277677 7.54180993,6.31227971 C7.55216703,6.2418514 7.57390551,6.17349352 7.60702602,6.10720402 L7.59931472,6.11683661 Z M13.1827728,6.11683661 C13.1393024,6.17093119 13.0921432,6.21949099 13.0412939,6.26251732 C12.9873844,6.30813307 12.9251821,6.35167472 12.854685,6.39314358 L11.7847937,7.00895308 L11.5111006,6.54243073 L12.5809919,5.92040093 C12.738375,5.82514271 12.8957558,5.77538612 13.053139,5.77112967 C12.9590017,5.76047922 12.8852944,5.74558195 12.8142531,5.72446155 C12.7375357,5.70165367 12.6597827,5.66536896 12.5809919,5.61560633 L11.5048803,4.98735623 L11.7785734,4.52083388 L12.854685,5.14286368 C12.9293289,5.18847943 12.9956781,5.2361679 13.0537345,5.28593054 C13.1117909,5.33569317 13.1636262,5.39582212 13.209242,5.46631918 C13.1428918,5.32117817 13.1097172,5.16567227 13.1097172,4.99979683 L13.1097172,3.76817783 L13.6571034,3.76817783 L13.6571034,4.99357653 C13.6571034,5.07651425 13.6519199,5.1542672 13.6415527,5.22683771 C13.6311955,5.29933774 13.6094569,5.3687326 13.5763362,5.43502438 C13.6275057,5.3713093 13.6746707,5.32274229 13.7255267,5.27971024 C13.7794362,5.23409449 13.8416386,5.18847943 13.9121357,5.14286368 L14.9820269,4.52705418 L15.25572,4.99357653 L14.1858288,5.61560633 C14.1153317,5.66122208 14.0448357,5.69647008 13.9743386,5.7213514 C13.903888,5.74621633 13.8292971,5.76279816 13.7505636,5.77109739 C13.8362109,5.78088637 13.9071572,5.79603085 13.9743386,5.81776602 C14.0448357,5.84057389 14.1153317,5.87478519 14.1858288,5.92040093 L15.2619403,6.54865103 L14.9882472,7.01517338 L13.9121357,6.39314358 C13.8374917,6.34752783 13.7711425,6.30191277 13.7130861,6.25629702 C13.6550297,6.21068128 13.6031944,6.15262574 13.5575787,6.08212868 C13.6239288,6.21897592 13.6571034,6.37033499 13.6571034,6.53621043 L13.6571034,7.76782944 L13.1097172,7.76782944 L13.1097172,6.54243073 C13.1097172,6.45949301 13.1149007,6.38277677 13.125268,6.31227971 C13.1356251,6.2418514 13.1573635,6.17349352 13.1904841,6.10720402 L13.1827728,6.11683661 Z M18.7662308,6.11683661 C18.7227605,6.17093119 18.6756013,6.21949099 18.624752,6.26251732 C18.5708425,6.30813307 18.5086401,6.35167472 18.438143,6.39314358 L17.3682518,7.00895308 L17.0945587,6.54243073 L18.1644499,5.92040093 C18.3218331,5.82514271 18.4792139,5.77538612 18.636597,5.77112967 C18.5424597,5.76047922 18.4687524,5.74558195 18.3977111,5.72446155 C18.3209937,5.70165367 18.2432408,5.66536896 18.1644499,5.61560633 L17.0883384,4.98735623 L17.3620315,4.52083388 L18.438143,5.14286368 C18.512787,5.18847943 18.5791362,5.2361679 18.6371926,5.28593054 C18.695249,5.33569317 18.7470843,5.39582212 18.7927,5.46631918 C18.7263498,5.32117817 18.6931753,5.16567227 18.6931753,4.99979683 L18.6931753,3.76817783 L19.2405615,3.76817783 L19.2405615,4.99357653 C19.2405615,5.07651425 19.2353779,5.1542672 19.2250107,5.22683771 C19.2146536,5.29933774 19.192915,5.3687326 19.1597942,5.43502438 C19.2109637,5.3713093 19.2581287,5.32274229 19.3089848,5.27971024 C19.3628943,5.23409449 19.4250966,5.18847943 19.4955937,5.14286368 L20.5654849,4.52705418 L20.8391781,4.99357653 L19.7692868,5.61560633 C19.6987897,5.66122208 19.6282937,5.69647008 19.5577967,5.7213514 C19.487346,5.74621633 19.4127551,5.76279816 19.3340216,5.77109739 C19.4196689,5.78088637 19.4906153,5.79603085 19.5577967,5.81776602 C19.6282937,5.84057389 19.6987897,5.87478519 19.7692868,5.92040093 L20.8453984,6.54865103 L20.5717052,7.01517338 L19.4955937,6.39314358 C19.4209497,6.34752783 19.3546006,6.30191277 19.2965442,6.25629702 C19.2384878,6.21068128 19.1866525,6.15262574 19.1410367,6.08212868 C19.2073869,6.21897592 19.2405615,6.37033499 19.2405615,6.53621043 L19.2405615,7.76782944 L18.6931753,7.76782944 L18.6931753,6.54243073 C18.6931753,6.45949301 18.6983588,6.38277677 18.708726,6.31227971 C18.7190831,6.2418514 18.7408216,6.17349352 18.7739421,6.10720402 L18.7662308,6.11683661 Z M24.3496888,6.11683661 C24.3062185,6.17093119 24.2590593,6.21949099 24.20821,6.26251732 C24.1543005,6.30813307 24.0920981,6.35167472 24.0216011,6.39314358 L22.9517098,7.00895308 L22.6780167,6.54243073 L23.747908,5.92040093 C23.9052911,5.82514271 24.0626719,5.77538612 24.220055,5.77112967 C24.1259178,5.76047922 24.0522105,5.74558195 23.9811691,5.72446155 C23.9044517,5.70165367 23.8266988,5.66536896 23.747908,5.61560633 L22.6717964,4.98735623 L22.9454895,4.52083388 L24.0216011,5.14286368 C24.096245,5.18847943 24.1625942,5.2361679 24.2206506,5.28593054 C24.278707,5.33569317 24.3305423,5.39582212 24.3761581,5.46631918 C24.3098079,5.32117817 24.2766333,5.16567227 24.2766333,4.99979683 L24.2766333,3.76817783 L24.8240195,3.76817783 L24.8240195,4.99357653 C24.8240195,5.07651425 24.818836,5.1542672 24.8084688,5.22683771 C24.7981116,5.29933774 24.776373,5.3687326 24.7432523,5.43502438 C24.7944218,5.3713093 24.8415867,5.32274229 24.8924428,5.27971024 C24.9463523,5.23409449 25.0085547,5.18847943 25.0790517,5.14286368 L26.148943,4.52705418 L26.4226361,4.99357653 L25.3527448,5.61560633 C25.2822478,5.66122208 25.2117518,5.69647008 25.1412547,5.7213514 C25.0708041,5.74621633 24.9962131,5.76279816 24.9174796,5.77109739 C25.0031269,5.78088637 25.0740733,5.79603085 25.1412547,5.81776602 C25.2117518,5.84057389 25.2822478,5.87478519 25.3527448,5.92040093 L26.4288564,6.54865103 L26.1551633,7.01517338 L25.0790517,6.39314358 C25.0044078,6.34752783 24.9380586,6.30191277 24.8800022,6.25629702 C24.8219458,6.21068128 24.7701105,6.15262574 24.7244947,6.08212868 C24.7908449,6.21897592 24.8240195,6.37033499 24.8240195,6.53621043 L24.8240195,7.76782944 L24.2766333,7.76782944 L24.2766333,6.54243073 C24.2766333,6.45949301 24.2818168,6.38277677 24.292184,6.31227971 C24.3025411,6.2418514 24.3242796,6.17349352 24.3574001,6.10720402 L24.3496888,6.11683661 Z M29.9331469,6.11683661 C29.8896765,6.17093119 29.8425173,6.21949099 29.791668,6.26251732 C29.7377585,6.30813307 29.6755562,6.35167472 29.6050591,6.39314358 L28.5351679,7.00895308 L28.2614747,6.54243073 L29.331366,5.92040093 C29.4887491,5.82514271 29.6461299,5.77538612 29.8035131,5.77112967 C29.7093758,5.76047922 29.6356685,5.74558195 29.5646272,5.72446155 C29.4879098,5.70165367 29.4101568,5.66536896 29.331366,5.61560633 L28.2552544,4.98735623 L28.5289476,4.52083388 L29.6050591,5.14286368 C29.6797031,5.18847943 29.7460522,5.2361679 29.8041086,5.28593054 C29.862165,5.33569317 29.9140003,5.39582212 29.9596161,5.46631918 C29.8932659,5.32117817 29.8600913,5.16567227 29.8600913,4.99979683 L29.8600913,3.76817783 L30.4074775,3.76817783 L30.4074775,4.99357653 C30.4074775,5.07651425 30.402294,5.1542672 30.3919268,5.22683771 C30.3815697,5.29933774 30.359831,5.3687326 30.3267103,5.43502438 C30.3778798,5.3713093 30.4250448,5.32274229 30.4759008,5.27971024 C30.5298103,5.23409449 30.5920127,5.18847943 30.6625098,5.14286368 L31.732401,4.52705418 L32.0060941,4.99357653 L30.9362029,5.61560633 C30.8657058,5.66122208 30.7952098,5.69647008 30.7247127,5.7213514 C30.6542621,5.74621633 30.5796712,5.76279816 30.5009377,5.77109739 C30.586585,5.78088637 30.6575313,5.79603085 30.7247127,5.81776602 C30.7952098,5.84057389 30.8657058,5.87478519 30.9362029,5.92040093 L32.0123144,6.54865103 L31.7386213,7.01517338 L30.6625098,6.39314358 C30.5878658,6.34752783 30.5215166,6.30191277 30.4634602,6.25629702 C30.4054038,6.21068128 30.3535685,6.15262574 30.3079528,6.08212868 C30.374303,6.21897592 30.4074775,6.37033499 30.4074775,6.53621043 L30.4074775,7.76782944 L29.8600913,7.76782944 L29.8600913,6.54243073 C29.8600913,6.45949301 29.8652749,6.38277677 29.8756421,6.31227971 C29.8859992,6.2418514 29.9077377,6.17349352 29.9408582,6.10720402 L29.9331469,6.11683661 Z M35.5166049,6.11683661 C35.4731346,6.17093119 35.4259754,6.21949099 35.3751261,6.26251732 C35.3212166,6.30813307 35.2590142,6.35167472 35.1885171,6.39314358 L34.1186259,7.00895308 L33.8449328,6.54243073 L34.914824,5.92040093 C35.0722072,5.82514271 35.229588,5.77538612 35.3869711,5.77112967 C35.2928338,5.76047922 35.2191265,5.74558195 35.1480852,5.72446155 C35.0713678,5.70165367 34.9936149,5.66536896 34.914824,5.61560633 L33.8387125,4.98735623 L34.1124056,4.52083388 L35.1885171,5.14286368 C35.2631611,5.18847943 35.3295103,5.2361679 35.3875667,5.28593054 C35.4456231,5.33569317 35.4974584,5.39582212 35.5430741,5.46631918 C35.476724,5.32117817 35.4435494,5.16567227 35.4435494,4.99979683 L35.4435494,3.76817783 L35.9909356,3.76817783 L35.9909356,4.99357653 C35.9909356,5.07651425 35.9857521,5.1542672 35.9753848,5.22683771 C35.9650277,5.29933774 35.9432891,5.3687326 35.9101683,5.43502438 C35.9613378,5.3713093 36.0085028,5.32274229 36.0593589,5.27971024 C36.1132684,5.23409449 36.1754707,5.18847943 36.2459678,5.14286368 L37.3158591,4.52705418 L37.5895522,4.99357653 L36.5196609,5.61560633 C36.4491638,5.66122208 36.3786678,5.69647008 36.3081708,5.7213514 C36.2377201,5.74621633 36.1631292,5.76279816 36.0843957,5.77109739 C36.170043,5.78088637 36.2409894,5.79603085 36.3081708,5.81776602 C36.3786678,5.84057389 36.4491638,5.87478519 36.5196609,5.92040093 L37.5957725,6.54865103 L37.3220794,7.01517338 L36.2459678,6.39314358 C36.1713239,6.34752783 36.1049747,6.30191277 36.0469183,6.25629702 C35.9888619,6.21068128 35.9370266,6.15262574 35.8914108,6.08212868 C35.957761,6.21897592 35.9909356,6.37033499 35.9909356,6.53621043 L35.9909356,7.76782944 L35.4435494,7.76782944 L35.4435494,6.54243073 C35.4435494,6.45949301 35.4487329,6.38277677 35.4591001,6.31227971 C35.4694572,6.2418514 35.4911957,6.17349352 35.5243162,6.10720402 L35.5166049,6.11683661 Z" id="******"></path>
                </g>
                <g id="Group" transform="translate(28.862639, 145.114933)" fill="#FCC135">
                    <path d="M42.1590038,11.8428446 L1.44419673,11.8428446 C0.646602621,11.8428446 0,11.619543 0,11.3442078 L0,0.498747475 C0,0.223301589 0.646602621,0 1.44419673,0 L42.1590038,0 C42.956598,0 43.6032006,0.223301589 43.6032006,0.498747475 L43.6032006,11.3442078 C43.6032006,11.619543 42.956598,11.8428446 42.1590038,11.8428446" id="Fill-29" opacity="0.1"></path>
                    <path d="M7.59931472,6.11683661 C7.55584439,6.17093119 7.5086852,6.21949099 7.4578359,6.26251732 C7.40392639,6.30813307 7.34172403,6.35167472 7.27122696,6.39314358 L6.20133571,7.00895308 L5.9276426,6.54243073 L6.99753385,5.92040093 C7.154917,5.82514271 7.31229779,5.77538612 7.46968093,5.77112967 C7.37554366,5.76047922 7.30183637,5.74558195 7.23079503,5.72446155 C7.15407764,5.70165367 7.07632469,5.66536896 6.99753385,5.61560633 L5.9214223,4.98735623 L6.19511541,4.52083388 L7.27122696,5.14286368 C7.34587091,5.18847943 7.4122201,5.2361679 7.4702765,5.28593054 C7.5283329,5.33569317 7.5801682,5.39582212 7.62578395,5.46631918 C7.55943377,5.32117817 7.52625918,5.16567227 7.52625918,4.99979683 L7.52625918,3.76817783 L8.07364541,3.76817783 L8.07364541,4.99357653 C8.07364541,5.07651425 8.06846188,5.1542672 8.05809466,5.22683771 C8.04773751,5.29933774 8.02599889,5.3687326 7.99287815,5.43502438 C8.04404765,5.3713093 8.09121262,5.32274229 8.14206868,5.27971024 C8.1959782,5.23409449 8.25818056,5.18847943 8.32867762,5.14286368 L9.39856888,4.52705418 L9.67226199,4.99357653 L8.60237073,5.61560633 C8.53187367,5.66122208 8.46137767,5.69647008 8.3908806,5.7213514 C8.32042996,5.74621633 8.24583902,5.76279816 8.16710552,5.77109739 C8.25275282,5.78088637 8.32369919,5.79603085 8.3908806,5.81776602 C8.46137767,5.84057389 8.53187367,5.87478519 8.60237073,5.92040093 L9.67848229,6.54865103 L9.40478918,7.01517338 L8.32867762,6.39314358 C8.25403367,6.34752783 8.18768449,6.30191277 8.12962809,6.25629702 C8.07157168,6.21068128 8.01973638,6.15262574 7.97412064,6.08212868 C8.04047081,6.21897592 8.07364541,6.37033499 8.07364541,6.53621043 L8.07364541,7.76782944 L7.52625918,7.76782944 L7.52625918,6.54243073 C7.52625918,6.45949301 7.53144271,6.38277677 7.54180993,6.31227971 C7.55216703,6.2418514 7.57390551,6.17349352 7.60702602,6.10720402 L7.59931472,6.11683661 Z M13.1827728,6.11683661 C13.1393024,6.17093119 13.0921432,6.21949099 13.0412939,6.26251732 C12.9873844,6.30813307 12.9251821,6.35167472 12.854685,6.39314358 L11.7847937,7.00895308 L11.5111006,6.54243073 L12.5809919,5.92040093 C12.738375,5.82514271 12.8957558,5.77538612 13.053139,5.77112967 C12.9590017,5.76047922 12.8852944,5.74558195 12.8142531,5.72446155 C12.7375357,5.70165367 12.6597827,5.66536896 12.5809919,5.61560633 L11.5048803,4.98735623 L11.7785734,4.52083388 L12.854685,5.14286368 C12.9293289,5.18847943 12.9956781,5.2361679 13.0537345,5.28593054 C13.1117909,5.33569317 13.1636262,5.39582212 13.209242,5.46631918 C13.1428918,5.32117817 13.1097172,5.16567227 13.1097172,4.99979683 L13.1097172,3.76817783 L13.6571034,3.76817783 L13.6571034,4.99357653 C13.6571034,5.07651425 13.6519199,5.1542672 13.6415527,5.22683771 C13.6311955,5.29933774 13.6094569,5.3687326 13.5763362,5.43502438 C13.6275057,5.3713093 13.6746707,5.32274229 13.7255267,5.27971024 C13.7794362,5.23409449 13.8416386,5.18847943 13.9121357,5.14286368 L14.9820269,4.52705418 L15.25572,4.99357653 L14.1858288,5.61560633 C14.1153317,5.66122208 14.0448357,5.69647008 13.9743386,5.7213514 C13.903888,5.74621633 13.8292971,5.76279816 13.7505636,5.77109739 C13.8362109,5.78088637 13.9071572,5.79603085 13.9743386,5.81776602 C14.0448357,5.84057389 14.1153317,5.87478519 14.1858288,5.92040093 L15.2619403,6.54865103 L14.9882472,7.01517338 L13.9121357,6.39314358 C13.8374917,6.34752783 13.7711425,6.30191277 13.7130861,6.25629702 C13.6550297,6.21068128 13.6031944,6.15262574 13.5575787,6.08212868 C13.6239288,6.21897592 13.6571034,6.37033499 13.6571034,6.53621043 L13.6571034,7.76782944 L13.1097172,7.76782944 L13.1097172,6.54243073 C13.1097172,6.45949301 13.1149007,6.38277677 13.125268,6.31227971 C13.1356251,6.2418514 13.1573635,6.17349352 13.1904841,6.10720402 L13.1827728,6.11683661 Z M18.7662308,6.11683661 C18.7227605,6.17093119 18.6756013,6.21949099 18.624752,6.26251732 C18.5708425,6.30813307 18.5086401,6.35167472 18.438143,6.39314358 L17.3682518,7.00895308 L17.0945587,6.54243073 L18.1644499,5.92040093 C18.3218331,5.82514271 18.4792139,5.77538612 18.636597,5.77112967 C18.5424597,5.76047922 18.4687524,5.74558195 18.3977111,5.72446155 C18.3209937,5.70165367 18.2432408,5.66536896 18.1644499,5.61560633 L17.0883384,4.98735623 L17.3620315,4.52083388 L18.438143,5.14286368 C18.512787,5.18847943 18.5791362,5.2361679 18.6371926,5.28593054 C18.695249,5.33569317 18.7470843,5.39582212 18.7927,5.46631918 C18.7263498,5.32117817 18.6931753,5.16567227 18.6931753,4.99979683 L18.6931753,3.76817783 L19.2405615,3.76817783 L19.2405615,4.99357653 C19.2405615,5.07651425 19.2353779,5.1542672 19.2250107,5.22683771 C19.2146536,5.29933774 19.192915,5.3687326 19.1597942,5.43502438 C19.2109637,5.3713093 19.2581287,5.32274229 19.3089848,5.27971024 C19.3628943,5.23409449 19.4250966,5.18847943 19.4955937,5.14286368 L20.5654849,4.52705418 L20.8391781,4.99357653 L19.7692868,5.61560633 C19.6987897,5.66122208 19.6282937,5.69647008 19.5577967,5.7213514 C19.487346,5.74621633 19.4127551,5.76279816 19.3340216,5.77109739 C19.4196689,5.78088637 19.4906153,5.79603085 19.5577967,5.81776602 C19.6282937,5.84057389 19.6987897,5.87478519 19.7692868,5.92040093 L20.8453984,6.54865103 L20.5717052,7.01517338 L19.4955937,6.39314358 C19.4209497,6.34752783 19.3546006,6.30191277 19.2965442,6.25629702 C19.2384878,6.21068128 19.1866525,6.15262574 19.1410367,6.08212868 C19.2073869,6.21897592 19.2405615,6.37033499 19.2405615,6.53621043 L19.2405615,7.76782944 L18.6931753,7.76782944 L18.6931753,6.54243073 C18.6931753,6.45949301 18.6983588,6.38277677 18.708726,6.31227971 C18.7190831,6.2418514 18.7408216,6.17349352 18.7739421,6.10720402 L18.7662308,6.11683661 Z M24.3496888,6.11683661 C24.3062185,6.17093119 24.2590593,6.21949099 24.20821,6.26251732 C24.1543005,6.30813307 24.0920981,6.35167472 24.0216011,6.39314358 L22.9517098,7.00895308 L22.6780167,6.54243073 L23.747908,5.92040093 C23.9052911,5.82514271 24.0626719,5.77538612 24.220055,5.77112967 C24.1259178,5.76047922 24.0522105,5.74558195 23.9811691,5.72446155 C23.9044517,5.70165367 23.8266988,5.66536896 23.747908,5.61560633 L22.6717964,4.98735623 L22.9454895,4.52083388 L24.0216011,5.14286368 C24.096245,5.18847943 24.1625942,5.2361679 24.2206506,5.28593054 C24.278707,5.33569317 24.3305423,5.39582212 24.3761581,5.46631918 C24.3098079,5.32117817 24.2766333,5.16567227 24.2766333,4.99979683 L24.2766333,3.76817783 L24.8240195,3.76817783 L24.8240195,4.99357653 C24.8240195,5.07651425 24.818836,5.1542672 24.8084688,5.22683771 C24.7981116,5.29933774 24.776373,5.3687326 24.7432523,5.43502438 C24.7944218,5.3713093 24.8415867,5.32274229 24.8924428,5.27971024 C24.9463523,5.23409449 25.0085547,5.18847943 25.0790517,5.14286368 L26.148943,4.52705418 L26.4226361,4.99357653 L25.3527448,5.61560633 C25.2822478,5.66122208 25.2117518,5.69647008 25.1412547,5.7213514 C25.0708041,5.74621633 24.9962131,5.76279816 24.9174796,5.77109739 C25.0031269,5.78088637 25.0740733,5.79603085 25.1412547,5.81776602 C25.2117518,5.84057389 25.2822478,5.87478519 25.3527448,5.92040093 L26.4288564,6.54865103 L26.1551633,7.01517338 L25.0790517,6.39314358 C25.0044078,6.34752783 24.9380586,6.30191277 24.8800022,6.25629702 C24.8219458,6.21068128 24.7701105,6.15262574 24.7244947,6.08212868 C24.7908449,6.21897592 24.8240195,6.37033499 24.8240195,6.53621043 L24.8240195,7.76782944 L24.2766333,7.76782944 L24.2766333,6.54243073 C24.2766333,6.45949301 24.2818168,6.38277677 24.292184,6.31227971 C24.3025411,6.2418514 24.3242796,6.17349352 24.3574001,6.10720402 L24.3496888,6.11683661 Z M29.9331469,6.11683661 C29.8896765,6.17093119 29.8425173,6.21949099 29.791668,6.26251732 C29.7377585,6.30813307 29.6755562,6.35167472 29.6050591,6.39314358 L28.5351679,7.00895308 L28.2614747,6.54243073 L29.331366,5.92040093 C29.4887491,5.82514271 29.6461299,5.77538612 29.8035131,5.77112967 C29.7093758,5.76047922 29.6356685,5.74558195 29.5646272,5.72446155 C29.4879098,5.70165367 29.4101568,5.66536896 29.331366,5.61560633 L28.2552544,4.98735623 L28.5289476,4.52083388 L29.6050591,5.14286368 C29.6797031,5.18847943 29.7460522,5.2361679 29.8041086,5.28593054 C29.862165,5.33569317 29.9140003,5.39582212 29.9596161,5.46631918 C29.8932659,5.32117817 29.8600913,5.16567227 29.8600913,4.99979683 L29.8600913,3.76817783 L30.4074775,3.76817783 L30.4074775,4.99357653 C30.4074775,5.07651425 30.402294,5.1542672 30.3919268,5.22683771 C30.3815697,5.29933774 30.359831,5.3687326 30.3267103,5.43502438 C30.3778798,5.3713093 30.4250448,5.32274229 30.4759008,5.27971024 C30.5298103,5.23409449 30.5920127,5.18847943 30.6625098,5.14286368 L31.732401,4.52705418 L32.0060941,4.99357653 L30.9362029,5.61560633 C30.8657058,5.66122208 30.7952098,5.69647008 30.7247127,5.7213514 C30.6542621,5.74621633 30.5796712,5.76279816 30.5009377,5.77109739 C30.586585,5.78088637 30.6575313,5.79603085 30.7247127,5.81776602 C30.7952098,5.84057389 30.8657058,5.87478519 30.9362029,5.92040093 L32.0123144,6.54865103 L31.7386213,7.01517338 L30.6625098,6.39314358 C30.5878658,6.34752783 30.5215166,6.30191277 30.4634602,6.25629702 C30.4054038,6.21068128 30.3535685,6.15262574 30.3079528,6.08212868 C30.374303,6.21897592 30.4074775,6.37033499 30.4074775,6.53621043 L30.4074775,7.76782944 L29.8600913,7.76782944 L29.8600913,6.54243073 C29.8600913,6.45949301 29.8652749,6.38277677 29.8756421,6.31227971 C29.8859992,6.2418514 29.9077377,6.17349352 29.9408582,6.10720402 L29.9331469,6.11683661 Z M35.5166049,6.11683661 C35.4731346,6.17093119 35.4259754,6.21949099 35.3751261,6.26251732 C35.3212166,6.30813307 35.2590142,6.35167472 35.1885171,6.39314358 L34.1186259,7.00895308 L33.8449328,6.54243073 L34.914824,5.92040093 C35.0722072,5.82514271 35.229588,5.77538612 35.3869711,5.77112967 C35.2928338,5.76047922 35.2191265,5.74558195 35.1480852,5.72446155 C35.0713678,5.70165367 34.9936149,5.66536896 34.914824,5.61560633 L33.8387125,4.98735623 L34.1124056,4.52083388 L35.1885171,5.14286368 C35.2631611,5.18847943 35.3295103,5.2361679 35.3875667,5.28593054 C35.4456231,5.33569317 35.4974584,5.39582212 35.5430741,5.46631918 C35.476724,5.32117817 35.4435494,5.16567227 35.4435494,4.99979683 L35.4435494,3.76817783 L35.9909356,3.76817783 L35.9909356,4.99357653 C35.9909356,5.07651425 35.9857521,5.1542672 35.9753848,5.22683771 C35.9650277,5.29933774 35.9432891,5.3687326 35.9101683,5.43502438 C35.9613378,5.3713093 36.0085028,5.32274229 36.0593589,5.27971024 C36.1132684,5.23409449 36.1754707,5.18847943 36.2459678,5.14286368 L37.3158591,4.52705418 L37.5895522,4.99357653 L36.5196609,5.61560633 C36.4491638,5.66122208 36.3786678,5.69647008 36.3081708,5.7213514 C36.2377201,5.74621633 36.1631292,5.76279816 36.0843957,5.77109739 C36.170043,5.78088637 36.2409894,5.79603085 36.3081708,5.81776602 C36.3786678,5.84057389 36.4491638,5.87478519 36.5196609,5.92040093 L37.5957725,6.54865103 L37.3220794,7.01517338 L36.2459678,6.39314358 C36.1713239,6.34752783 36.1049747,6.30191277 36.0469183,6.25629702 C35.9888619,6.21068128 35.9370266,6.15262574 35.8914108,6.08212868 C35.957761,6.21897592 35.9909356,6.37033499 35.9909356,6.53621043 L35.9909356,7.76782944 L35.4435494,7.76782944 L35.4435494,6.54243073 C35.4435494,6.45949301 35.4487329,6.38277677 35.4591001,6.31227971 C35.4694572,6.2418514 35.4911957,6.17349352 35.5243162,6.10720402 L35.5166049,6.11683661 Z" id="******"></path>
                </g>
                <path d="M90.04848,136.125891 L54.8838445,136.125891 C49.7289772,136.125891 45.5506063,131.946444 45.5506063,126.792653 L45.5506063,45.1706915 C45.5506063,40.0158243 49.7289772,35.8374534 54.8838445,35.8374534 L90.04848,35.8374534 C95.2022706,35.8374534 99.3817181,40.0158243 99.3817181,45.1706915 L99.3817181,126.792653 C99.3817181,131.946444 95.2022706,136.125891 90.04848,136.125891 Z" id="Stroke-3" stroke="#E1E4E7"></path>
                <path d="M80.9318582,45.9861252 L61.6969253,45.9861252 C60.8862288,45.9861252 60.2294892,45.3293857 60.2294892,44.5186891 C60.2294892,43.7090692 60.8862288,43.0523296 61.6969253,43.0523296 L80.9318582,43.0523296 C81.7425548,43.0523296 82.3992943,43.7090692 82.3992943,44.5186891 C82.3992943,45.3293857 81.7425548,45.9861252 80.9318582,45.9861252" id="Fill-5" fill="#EDF1F5"></path>
                <path d="M76.0513143,123.581735 C76.0513143,126.431554 73.740883,128.741985 70.8910639,128.741985 C68.0401682,128.741985 65.7297369,126.431554 65.7297369,123.581735 C65.7297369,120.730839 68.0401682,118.420408 70.8910639,118.420408 C73.740883,118.420408 76.0513143,120.730839 76.0513143,123.581735" id="Fill-7" fill="#020303"></path>
                <path d="M221.92523,172.68163 L85.1877459,172.68163 C82.5101864,172.68163 80.3375627,170.510083 80.3375627,167.832524 L80.3375627,62.3633797 C80.3375627,59.6836669 82.5101864,57.5131965 85.1877459,57.5131965 L221.92523,57.5131965 C224.602789,57.5131965 226.774336,59.6836669 226.774336,62.3633797 L226.774336,167.832524 C226.774336,170.510083 224.602789,172.68163 221.92523,172.68163" id="Fill-9" fill="#FEFEFE"></path>
                <path d="M226.774229,69.9583036 L80.3374551,69.9583036 L80.3374551,62.4424038 C80.3374551,59.7196261 82.5445307,57.5125505 85.2662317,57.5125505 L221.845452,57.5125505 C224.56823,57.5125505 226.774229,59.7196261 226.774229,62.4424038 L226.774229,69.9583036 Z" id="Stroke-13" fill="#EDF1F5"></path>
                <path d="M221.92523,172.68163 L85.1877459,172.68163 C82.5101864,172.68163 80.3375627,170.510083 80.3375627,167.832524 L80.3375627,62.3633797 C80.3375627,59.6836669 82.5101864,57.5131965 85.1877459,57.5131965 L221.92523,57.5131965 C224.602789,57.5131965 226.774336,59.6836669 226.774336,62.3633797 L226.774336,167.832524 C226.774336,170.510083 224.602789,172.68163 221.92523,172.68163 Z" id="Stroke-11" stroke="#E1E4E7"></path>
                <path d="M87.2075969,63.1721383 C87.2075969,64.1184893 86.4410419,64.8850443 85.4946909,64.8850443 C84.54834,64.8850443 83.7817849,64.1184893 83.7817849,63.1721383 C83.7817849,62.226864 84.54834,61.4592323 85.4946909,61.4592323 C86.4410419,61.4592323 87.2075969,62.226864 87.2075969,63.1721383" id="Fill-15" fill="#FF4733"></path>
                <path d="M93.6673303,63.1721383 C93.6673303,64.1184893 92.9007753,64.8850443 91.9544243,64.8850443 C91.0080734,64.8850443 90.2415183,64.1184893 90.2415183,63.1721383 C90.2415183,62.226864 91.0080734,61.4592323 91.9544243,61.4592323 C92.9007753,61.4592323 93.6673303,62.226864 93.6673303,63.1721383" id="Fill-17" fill="#FCC135"></path>
                <path d="M100.127064,63.1721383 C100.127064,64.1184893 99.3605087,64.8850443 98.4141577,64.8850443 C97.4678068,64.8850443 96.7012518,64.1184893 96.7012518,63.1721383 C96.7012518,62.226864 97.4678068,61.4592323 98.4141577,61.4592323 C99.3605087,61.4592323 100.127064,62.226864 100.127064,63.1721383" id="Fill-19" fill="#17BA2B"></path>
                <path d="M69.0540234,200.185237 L33.8893879,200.185237 C28.7345206,200.185237 24.5561497,196.00579 24.5561497,190.851999 L24.5561497,109.230038 C24.5561497,104.07517 28.7345206,99.8967994 33.8893879,99.8967994 L69.0540234,99.8967994 C74.2088907,99.8967994 78.3872616,104.07517 78.3872616,109.230038 L78.3872616,190.851999 C78.3872616,196.00579 74.2088907,200.185237 69.0540234,200.185237" id="Fill-21" fill="#FEFEFE"></path>
                <path d="M69.5921192,200.723226 L34.4274837,200.723226 C29.2726164,200.723226 25.0942455,196.543778 25.0942455,191.389987 L25.0942455,109.768026 C25.0942455,104.613158 29.2726164,100.434788 34.4274837,100.434788 L69.5921192,100.434788 C74.7469864,100.434788 78.9253573,104.613158 78.9253573,109.768026 L78.9253573,191.389987 C78.9253573,196.543778 74.7469864,200.723226 69.5921192,200.723226 Z" id="Stroke-23" stroke="#E1E4E7"></path>
                <path d="M60.4760357,110.583459 L41.2411028,110.583459 C40.4304063,110.583459 39.7736667,109.92672 39.7736667,109.1171 C39.7736667,108.306403 40.4304063,107.648587 41.2411028,107.648587 L60.4760357,107.648587 C61.2867323,107.648587 61.9434718,108.306403 61.9434718,109.1171 C61.9434718,109.92672 61.2867323,110.583459 60.4760357,110.583459" id="Fill-25" fill="#EDF1F5"></path>
                <path d="M55.5954918,188.179069 C55.5954918,191.028888 53.2850605,193.33932 50.4352414,193.33932 C47.5843457,193.33932 45.2739144,191.028888 45.2739144,188.179069 C45.2739144,185.328173 47.5843457,183.017742 50.4352414,183.017742 C53.2850605,183.017742 55.5954918,185.328173 55.5954918,188.179069" id="Fill-27" fill="#E1E4E7"></path>
                <path d="M288.877675,197.839278 L152.141268,197.839278 C149.462632,197.839278 147.291085,195.66773 147.291085,192.990171 L147.291085,87.5210268 C147.291085,84.8423907 149.462632,82.6708436 152.141268,82.6708436 L288.877675,82.6708436 C291.556311,82.6708436 293.727858,84.8423907 293.727858,87.5210268 L293.727858,192.990171 C293.727858,195.66773 291.556311,197.839278 288.877675,197.839278" id="Fill-29" fill="#FEFEFE"></path>
                <g id="Group" transform="translate(178.513130, 127.888978)" fill="#FCC135">
                    <path d="M84.3180077,23.6856892 L2.88839347,23.6856892 C1.29320524,23.6856892 0,23.239086 0,22.6884157 L0,0.997494951 C0,0.446603178 1.29320524,0 2.88839347,0 L84.3180077,0 C85.9131959,0 87.2064011,0.446603178 87.2064011,0.997494951 L87.2064011,22.6884157 C87.2064011,23.239086 85.9131959,23.6856892 84.3180077,23.6856892" id="Fill-29" opacity="0.1"></path>
                    <path d="M15.1986294,12.2336732 C15.1116888,12.3418624 15.0173704,12.438982 14.9156718,12.5250346 C14.8078528,12.6162661 14.6834481,12.7033494 14.5424539,12.7862872 L12.4026714,14.0179062 L11.8552852,13.0848615 L13.9950677,11.8408019 C14.309834,11.6502854 14.6245956,11.5507722 14.9393619,11.5422593 C14.7510873,11.5209584 14.6036727,11.4911639 14.4615901,11.4489231 C14.3081553,11.4033073 14.1526494,11.3307379 13.9950677,11.2312127 L11.8428446,9.97471247 L12.3902308,9.04166777 L14.5424539,10.2857274 C14.6917418,10.3769589 14.8244402,10.4723358 14.940553,10.5718611 C15.0566658,10.6713863 15.1603364,10.7916442 15.2515679,10.9326384 C15.1188675,10.6423563 15.0525184,10.3313445 15.0525184,9.99959366 L15.0525184,7.53635565 L16.1472908,7.53635565 L16.1472908,9.98715306 C16.1472908,10.1530285 16.1369238,10.3085344 16.1161893,10.4536754 C16.095475,10.5986755 16.0519978,10.7374652 15.9857563,10.8700488 C16.0880953,10.7426186 16.1824252,10.6454846 16.2841374,10.5594205 C16.3919564,10.468189 16.5163611,10.3769589 16.6573552,10.2857274 L18.7971378,9.05410836 L19.344524,9.98715306 L17.2047415,11.2312127 C17.0637473,11.3224442 16.9227553,11.3929402 16.7817612,11.4427028 C16.6408599,11.4924327 16.491678,11.5255963 16.334211,11.5421948 C16.5055056,11.5617727 16.6473984,11.5920617 16.7817612,11.635532 C16.9227553,11.6811478 17.0637473,11.7495704 17.2047415,11.8408019 L19.3569646,13.0973021 L18.8095784,14.0303468 L16.6573552,12.7862872 C16.5080673,12.6950557 16.375369,12.6038255 16.2592562,12.512594 C16.1431434,12.4213626 16.0394728,12.3052515 15.9482413,12.1642574 C16.0809416,12.4379518 16.1472908,12.74067 16.1472908,13.0724209 L16.1472908,15.5356589 L15.0525184,15.5356589 L15.0525184,13.0848615 C15.0525184,12.918986 15.0628854,12.7655535 15.0836199,12.6245594 C15.1043341,12.4837028 15.147811,12.346987 15.214052,12.214408 L15.1986294,12.2336732 Z M26.3655455,12.2336732 C26.2786048,12.3418624 26.1842865,12.438982 26.0825879,12.5250346 C25.9747688,12.6162661 25.8503641,12.7033494 25.70937,12.7862872 L23.5695875,14.0179062 L23.0222013,13.0848615 L25.1619838,11.8408019 C25.4767501,11.6502854 25.7915116,11.5507722 26.1062779,11.5422593 C25.9180034,11.5209584 25.7705888,11.4911639 25.6285061,11.4489231 C25.4750713,11.4033073 25.3195654,11.3307379 25.1619838,11.2312127 L23.0097607,9.97471247 L23.5571469,9.04166777 L25.70937,10.2857274 C25.8586579,10.3769589 25.9913563,10.4723358 26.1074691,10.5718611 C26.2235819,10.6713863 26.3272525,10.7916442 26.418484,10.9326384 C26.2857836,10.6423563 26.2194344,10.3313445 26.2194344,9.99959366 L26.2194344,7.53635565 L27.3142069,7.53635565 L27.3142069,9.98715306 C27.3142069,10.1530285 27.3038398,10.3085344 27.2831054,10.4536754 C27.2623911,10.5986755 27.2189139,10.7374652 27.1526724,10.8700488 C27.2550114,10.7426186 27.3493413,10.6454846 27.4510534,10.5594205 C27.5588725,10.468189 27.6832772,10.3769589 27.8242713,10.2857274 L29.9640538,9.05410836 L30.51144,9.98715306 L28.3716575,11.2312127 C28.2306634,11.3224442 28.0896714,11.3929402 27.9486773,11.4427028 C27.807776,11.4924327 27.6585941,11.5255963 27.5011271,11.5421948 C27.6724217,11.5617727 27.8143145,11.5920617 27.9486773,11.635532 C28.0896714,11.6811478 28.2306634,11.7495704 28.3716575,11.8408019 L30.5238806,13.0973021 L29.9764944,14.0303468 L27.8242713,12.7862872 C27.6749834,12.6950557 27.5422851,12.6038255 27.4261722,12.512594 C27.3100594,12.4213626 27.2063888,12.3052515 27.1151573,12.1642574 C27.2478577,12.4379518 27.3142069,12.74067 27.3142069,13.0724209 L27.3142069,15.5356589 L26.2194344,15.5356589 L26.2194344,13.0848615 C26.2194344,12.918986 26.2298015,12.7655535 26.2505359,12.6245594 C26.2712501,12.4837028 26.3147271,12.346987 26.3809681,12.214408 L26.3655455,12.2336732 Z M37.5324616,12.2336732 C37.4455209,12.3418624 37.3512025,12.438982 37.249504,12.5250346 C37.1416849,12.6162661 37.0172802,12.7033494 36.8762861,12.7862872 L34.7365036,14.0179062 L34.1891173,13.0848615 L36.3288998,11.8408019 C36.6436661,11.6502854 36.9584277,11.5507722 37.273194,11.5422593 C37.0849195,11.5209584 36.9375049,11.4911639 36.7954222,11.4489231 C36.6419874,11.4033073 36.4864815,11.3307379 36.3288998,11.2312127 L34.1766767,9.97471247 L34.724063,9.04166777 L36.8762861,10.2857274 C37.025574,10.3769589 37.1582723,10.4723358 37.2743851,10.5718611 C37.390498,10.6713863 37.4941685,10.7916442 37.5854,10.9326384 C37.4526997,10.6423563 37.3863505,10.3313445 37.3863505,9.99959366 L37.3863505,7.53635565 L38.481123,7.53635565 L38.481123,9.98715306 C38.481123,10.1530285 38.4707559,10.3085344 38.4500215,10.4536754 C38.4293072,10.5986755 38.3858299,10.7374652 38.3195884,10.8700488 C38.4219274,10.7426186 38.5162574,10.6454846 38.6179695,10.5594205 C38.7257885,10.468189 38.8501933,10.3769589 38.9911874,10.2857274 L41.1309699,9.05410836 L41.6783561,9.98715306 L39.5385736,11.2312127 C39.3975795,11.3224442 39.2565875,11.3929402 39.1155933,11.4427028 C38.9746921,11.4924327 38.8255102,11.5255963 38.6680432,11.5421948 C38.8393378,11.5617727 38.9812305,11.5920617 39.1155933,11.635532 C39.2565875,11.6811478 39.3975795,11.7495704 39.5385736,11.8408019 L41.6907967,13.0973021 L41.1434105,14.0303468 L38.9911874,12.7862872 C38.8418995,12.6950557 38.7092011,12.6038255 38.5930883,12.512594 C38.4769755,12.4213626 38.3733049,12.3052515 38.2820734,12.1642574 C38.4147738,12.4379518 38.481123,12.74067 38.481123,13.0724209 L38.481123,15.5356589 L37.3863505,15.5356589 L37.3863505,13.0848615 C37.3863505,12.918986 37.3967176,12.7655535 37.417452,12.6245594 C37.4381662,12.4837028 37.4816432,12.346987 37.5478842,12.214408 L37.5324616,12.2336732 Z M48.6993776,12.2336732 C48.612437,12.3418624 48.5181186,12.438982 48.41642,12.5250346 C48.308601,12.6162661 48.1841963,12.7033494 48.0432021,12.7862872 L45.9034196,14.0179062 L45.3560334,13.0848615 L47.4958159,11.8408019 C47.8105822,11.6502854 48.1253438,11.5507722 48.4401101,11.5422593 C48.2518355,11.5209584 48.104421,11.4911639 47.9623383,11.4489231 C47.8089035,11.4033073 47.6533976,11.3307379 47.4958159,11.2312127 L45.3435928,9.97471247 L45.890979,9.04166777 L48.0432021,10.2857274 C48.19249,10.3769589 48.3251884,10.4723358 48.4413012,10.5718611 C48.557414,10.6713863 48.6610846,10.7916442 48.7523161,10.9326384 C48.6196158,10.6423563 48.5532666,10.3313445 48.5532666,9.99959366 L48.5532666,7.53635565 L49.648039,7.53635565 L49.648039,9.98715306 C49.648039,10.1530285 49.637672,10.3085344 49.6169375,10.4536754 C49.5962232,10.5986755 49.552746,10.7374652 49.4865045,10.8700488 C49.5888435,10.7426186 49.6831735,10.6454846 49.7848856,10.5594205 C49.8927046,10.468189 50.0171093,10.3769589 50.1581035,10.2857274 L52.297886,9.05410836 L52.8452722,9.98715306 L50.7054897,11.2312127 C50.5644956,11.3224442 50.4235035,11.3929402 50.2825094,11.4427028 C50.1416081,11.4924327 49.9924262,11.5255963 49.8349593,11.5421948 C50.0062539,11.5617727 50.1481466,11.5920617 50.2825094,11.635532 C50.4235035,11.6811478 50.5644956,11.7495704 50.7054897,11.8408019 L52.8577128,13.0973021 L52.3103266,14.0303468 L50.1581035,12.7862872 C50.0088156,12.6950557 49.8761172,12.6038255 49.7600044,12.512594 C49.6438916,12.4213626 49.540221,12.3052515 49.4489895,12.1642574 C49.5816898,12.4379518 49.648039,12.74067 49.648039,13.0724209 L49.648039,15.5356589 L48.5532666,15.5356589 L48.5532666,13.0848615 C48.5532666,12.918986 48.5636336,12.7655535 48.5843681,12.6245594 C48.6050823,12.4837028 48.6485592,12.346987 48.7148003,12.214408 L48.6993776,12.2336732 Z M59.8662937,12.2336732 C59.7793531,12.3418624 59.6850347,12.438982 59.5833361,12.5250346 C59.4755171,12.6162661 59.3511123,12.7033494 59.2101182,12.7862872 L57.0703357,14.0179062 L56.5229495,13.0848615 L58.662732,11.8408019 C58.9774983,11.6502854 59.2922599,11.5507722 59.6070261,11.5422593 C59.4187516,11.5209584 59.271337,11.4911639 59.1292543,11.4489231 C58.9758196,11.4033073 58.8203137,11.3307379 58.662732,11.2312127 L56.5105089,9.97471247 L57.0578951,9.04166777 L59.2101182,10.2857274 C59.3594061,10.3769589 59.4921045,10.4723358 59.6082173,10.5718611 C59.7243301,10.6713863 59.8280007,10.7916442 59.9192322,10.9326384 C59.7865318,10.6423563 59.7201826,10.3313445 59.7201826,9.99959366 L59.7201826,7.53635565 L60.8149551,7.53635565 L60.8149551,9.98715306 C60.8149551,10.1530285 60.804588,10.3085344 60.7838536,10.4536754 C60.7631393,10.5986755 60.7196621,10.7374652 60.6534206,10.8700488 C60.7557596,10.7426186 60.8500895,10.6454846 60.9518017,10.5594205 C61.0596207,10.468189 61.1840254,10.3769589 61.3250195,10.2857274 L63.464802,9.05410836 L64.0121883,9.98715306 L61.8724058,11.2312127 C61.7314116,11.3224442 61.5904196,11.3929402 61.4494255,11.4427028 C61.3085242,11.4924327 61.1593423,11.5255963 61.0018753,11.5421948 C61.1731699,11.5617727 61.3150627,11.5920617 61.4494255,11.635532 C61.5904196,11.6811478 61.7314116,11.7495704 61.8724058,11.8408019 L64.0246289,13.0973021 L63.4772426,14.0303468 L61.3250195,12.7862872 C61.1757316,12.6950557 61.0430333,12.6038255 60.9269205,12.512594 C60.8108076,12.4213626 60.7071371,12.3052515 60.6159056,12.1642574 C60.7486059,12.4379518 60.8149551,12.74067 60.8149551,13.0724209 L60.8149551,15.5356589 L59.7201826,15.5356589 L59.7201826,13.0848615 C59.7201826,12.918986 59.7305497,12.7655535 59.7512841,12.6245594 C59.7719983,12.4837028 59.8154753,12.346987 59.8817163,12.214408 L59.8662937,12.2336732 Z M71.0332098,12.2336732 C70.9462691,12.3418624 70.8519508,12.438982 70.7502522,12.5250346 C70.6424331,12.6162661 70.5180284,12.7033494 70.3770343,12.7862872 L68.2372518,14.0179062 L67.6898656,13.0848615 L69.8296481,11.8408019 C70.1444144,11.6502854 70.4591759,11.5507722 70.7739422,11.5422593 C70.5856677,11.5209584 70.4382531,11.4911639 70.2961704,11.4489231 C70.1427356,11.4033073 69.9872297,11.3307379 69.8296481,11.2312127 L67.677425,9.97471247 L68.2248112,9.04166777 L70.3770343,10.2857274 C70.5263222,10.3769589 70.6590205,10.4723358 70.7751334,10.5718611 C70.8912462,10.6713863 70.9949168,10.7916442 71.0861483,10.9326384 C70.9534479,10.6423563 70.8870987,10.3313445 70.8870987,9.99959366 L70.8870987,7.53635565 L71.9818712,7.53635565 L71.9818712,9.98715306 C71.9818712,10.1530285 71.9715041,10.3085344 71.9507697,10.4536754 C71.9300554,10.5986755 71.8865781,10.7374652 71.8203367,10.8700488 C71.9226757,10.7426186 72.0170056,10.6454846 72.1187177,10.5594205 C72.2265368,10.468189 72.3509415,10.3769589 72.4919356,10.2857274 L74.6317181,9.05410836 L75.1791043,9.98715306 L73.0393218,11.2312127 C72.8983277,11.3224442 72.7573357,11.3929402 72.6163416,11.4427028 C72.4754403,11.4924327 72.3262584,11.5255963 72.1687914,11.5421948 C72.340086,11.5617727 72.4819787,11.5920617 72.6163416,11.635532 C72.7573357,11.6811478 72.8983277,11.7495704 73.0393218,11.8408019 L75.1915449,13.0973021 L74.6441587,14.0303468 L72.4919356,12.7862872 C72.3426477,12.6950557 72.2099493,12.6038255 72.0938365,12.512594 C71.9777237,12.4213626 71.8740531,12.3052515 71.7828216,12.1642574 C71.915522,12.4379518 71.9818712,12.74067 71.9818712,13.0724209 L71.9818712,15.5356589 L70.8870987,15.5356589 L70.8870987,13.0848615 C70.8870987,12.918986 70.8974658,12.7655535 70.9182002,12.6245594 C70.9389144,12.4837028 70.9823914,12.346987 71.0486324,12.214408 L71.0332098,12.2336732 Z" id="******"></path>
                </g>
                <g id="Group" transform="translate(28.862639, 145.114933)" fill="#FCC135">
                    <path d="M42.1590038,11.8428446 L1.44419673,11.8428446 C0.646602621,11.8428446 0,11.619543 0,11.3442078 L0,0.498747475 C0,0.223301589 0.646602621,0 1.44419673,0 L42.1590038,0 C42.956598,0 43.6032006,0.223301589 43.6032006,0.498747475 L43.6032006,11.3442078 C43.6032006,11.619543 42.956598,11.8428446 42.1590038,11.8428446" id="Fill-29" opacity="0.1"></path>
                    <path d="M7.59931472,6.11683661 C7.55584439,6.17093119 7.5086852,6.21949099 7.4578359,6.26251732 C7.40392639,6.30813307 7.34172403,6.35167472 7.27122696,6.39314358 L6.20133571,7.00895308 L5.9276426,6.54243073 L6.99753385,5.92040093 C7.154917,5.82514271 7.31229779,5.77538612 7.46968093,5.77112967 C7.37554366,5.76047922 7.30183637,5.74558195 7.23079503,5.72446155 C7.15407764,5.70165367 7.07632469,5.66536896 6.99753385,5.61560633 L5.9214223,4.98735623 L6.19511541,4.52083388 L7.27122696,5.14286368 C7.34587091,5.18847943 7.4122201,5.2361679 7.4702765,5.28593054 C7.5283329,5.33569317 7.5801682,5.39582212 7.62578395,5.46631918 C7.55943377,5.32117817 7.52625918,5.16567227 7.52625918,4.99979683 L7.52625918,3.76817783 L8.07364541,3.76817783 L8.07364541,4.99357653 C8.07364541,5.07651425 8.06846188,5.1542672 8.05809466,5.22683771 C8.04773751,5.29933774 8.02599889,5.3687326 7.99287815,5.43502438 C8.04404765,5.3713093 8.09121262,5.32274229 8.14206868,5.27971024 C8.1959782,5.23409449 8.25818056,5.18847943 8.32867762,5.14286368 L9.39856888,4.52705418 L9.67226199,4.99357653 L8.60237073,5.61560633 C8.53187367,5.66122208 8.46137767,5.69647008 8.3908806,5.7213514 C8.32042996,5.74621633 8.24583902,5.76279816 8.16710552,5.77109739 C8.25275282,5.78088637 8.32369919,5.79603085 8.3908806,5.81776602 C8.46137767,5.84057389 8.53187367,5.87478519 8.60237073,5.92040093 L9.67848229,6.54865103 L9.40478918,7.01517338 L8.32867762,6.39314358 C8.25403367,6.34752783 8.18768449,6.30191277 8.12962809,6.25629702 C8.07157168,6.21068128 8.01973638,6.15262574 7.97412064,6.08212868 C8.04047081,6.21897592 8.07364541,6.37033499 8.07364541,6.53621043 L8.07364541,7.76782944 L7.52625918,7.76782944 L7.52625918,6.54243073 C7.52625918,6.45949301 7.53144271,6.38277677 7.54180993,6.31227971 C7.55216703,6.2418514 7.57390551,6.17349352 7.60702602,6.10720402 L7.59931472,6.11683661 Z M13.1827728,6.11683661 C13.1393024,6.17093119 13.0921432,6.21949099 13.0412939,6.26251732 C12.9873844,6.30813307 12.9251821,6.35167472 12.854685,6.39314358 L11.7847937,7.00895308 L11.5111006,6.54243073 L12.5809919,5.92040093 C12.738375,5.82514271 12.8957558,5.77538612 13.053139,5.77112967 C12.9590017,5.76047922 12.8852944,5.74558195 12.8142531,5.72446155 C12.7375357,5.70165367 12.6597827,5.66536896 12.5809919,5.61560633 L11.5048803,4.98735623 L11.7785734,4.52083388 L12.854685,5.14286368 C12.9293289,5.18847943 12.9956781,5.2361679 13.0537345,5.28593054 C13.1117909,5.33569317 13.1636262,5.39582212 13.209242,5.46631918 C13.1428918,5.32117817 13.1097172,5.16567227 13.1097172,4.99979683 L13.1097172,3.76817783 L13.6571034,3.76817783 L13.6571034,4.99357653 C13.6571034,5.07651425 13.6519199,5.1542672 13.6415527,5.22683771 C13.6311955,5.29933774 13.6094569,5.3687326 13.5763362,5.43502438 C13.6275057,5.3713093 13.6746707,5.32274229 13.7255267,5.27971024 C13.7794362,5.23409449 13.8416386,5.18847943 13.9121357,5.14286368 L14.9820269,4.52705418 L15.25572,4.99357653 L14.1858288,5.61560633 C14.1153317,5.66122208 14.0448357,5.69647008 13.9743386,5.7213514 C13.903888,5.74621633 13.8292971,5.76279816 13.7505636,5.77109739 C13.8362109,5.78088637 13.9071572,5.79603085 13.9743386,5.81776602 C14.0448357,5.84057389 14.1153317,5.87478519 14.1858288,5.92040093 L15.2619403,6.54865103 L14.9882472,7.01517338 L13.9121357,6.39314358 C13.8374917,6.34752783 13.7711425,6.30191277 13.7130861,6.25629702 C13.6550297,6.21068128 13.6031944,6.15262574 13.5575787,6.08212868 C13.6239288,6.21897592 13.6571034,6.37033499 13.6571034,6.53621043 L13.6571034,7.76782944 L13.1097172,7.76782944 L13.1097172,6.54243073 C13.1097172,6.45949301 13.1149007,6.38277677 13.125268,6.31227971 C13.1356251,6.2418514 13.1573635,6.17349352 13.1904841,6.10720402 L13.1827728,6.11683661 Z M18.7662308,6.11683661 C18.7227605,6.17093119 18.6756013,6.21949099 18.624752,6.26251732 C18.5708425,6.30813307 18.5086401,6.35167472 18.438143,6.39314358 L17.3682518,7.00895308 L17.0945587,6.54243073 L18.1644499,5.92040093 C18.3218331,5.82514271 18.4792139,5.77538612 18.636597,5.77112967 C18.5424597,5.76047922 18.4687524,5.74558195 18.3977111,5.72446155 C18.3209937,5.70165367 18.2432408,5.66536896 18.1644499,5.61560633 L17.0883384,4.98735623 L17.3620315,4.52083388 L18.438143,5.14286368 C18.512787,5.18847943 18.5791362,5.2361679 18.6371926,5.28593054 C18.695249,5.33569317 18.7470843,5.39582212 18.7927,5.46631918 C18.7263498,5.32117817 18.6931753,5.16567227 18.6931753,4.99979683 L18.6931753,3.76817783 L19.2405615,3.76817783 L19.2405615,4.99357653 C19.2405615,5.07651425 19.2353779,5.1542672 19.2250107,5.22683771 C19.2146536,5.29933774 19.192915,5.3687326 19.1597942,5.43502438 C19.2109637,5.3713093 19.2581287,5.32274229 19.3089848,5.27971024 C19.3628943,5.23409449 19.4250966,5.18847943 19.4955937,5.14286368 L20.5654849,4.52705418 L20.8391781,4.99357653 L19.7692868,5.61560633 C19.6987897,5.66122208 19.6282937,5.69647008 19.5577967,5.7213514 C19.487346,5.74621633 19.4127551,5.76279816 19.3340216,5.77109739 C19.4196689,5.78088637 19.4906153,5.79603085 19.5577967,5.81776602 C19.6282937,5.84057389 19.6987897,5.87478519 19.7692868,5.92040093 L20.8453984,6.54865103 L20.5717052,7.01517338 L19.4955937,6.39314358 C19.4209497,6.34752783 19.3546006,6.30191277 19.2965442,6.25629702 C19.2384878,6.21068128 19.1866525,6.15262574 19.1410367,6.08212868 C19.2073869,6.21897592 19.2405615,6.37033499 19.2405615,6.53621043 L19.2405615,7.76782944 L18.6931753,7.76782944 L18.6931753,6.54243073 C18.6931753,6.45949301 18.6983588,6.38277677 18.708726,6.31227971 C18.7190831,6.2418514 18.7408216,6.17349352 18.7739421,6.10720402 L18.7662308,6.11683661 Z M24.3496888,6.11683661 C24.3062185,6.17093119 24.2590593,6.21949099 24.20821,6.26251732 C24.1543005,6.30813307 24.0920981,6.35167472 24.0216011,6.39314358 L22.9517098,7.00895308 L22.6780167,6.54243073 L23.747908,5.92040093 C23.9052911,5.82514271 24.0626719,5.77538612 24.220055,5.77112967 C24.1259178,5.76047922 24.0522105,5.74558195 23.9811691,5.72446155 C23.9044517,5.70165367 23.8266988,5.66536896 23.747908,5.61560633 L22.6717964,4.98735623 L22.9454895,4.52083388 L24.0216011,5.14286368 C24.096245,5.18847943 24.1625942,5.2361679 24.2206506,5.28593054 C24.278707,5.33569317 24.3305423,5.39582212 24.3761581,5.46631918 C24.3098079,5.32117817 24.2766333,5.16567227 24.2766333,4.99979683 L24.2766333,3.76817783 L24.8240195,3.76817783 L24.8240195,4.99357653 C24.8240195,5.07651425 24.818836,5.1542672 24.8084688,5.22683771 C24.7981116,5.29933774 24.776373,5.3687326 24.7432523,5.43502438 C24.7944218,5.3713093 24.8415867,5.32274229 24.8924428,5.27971024 C24.9463523,5.23409449 25.0085547,5.18847943 25.0790517,5.14286368 L26.148943,4.52705418 L26.4226361,4.99357653 L25.3527448,5.61560633 C25.2822478,5.66122208 25.2117518,5.69647008 25.1412547,5.7213514 C25.0708041,5.74621633 24.9962131,5.76279816 24.9174796,5.77109739 C25.0031269,5.78088637 25.0740733,5.79603085 25.1412547,5.81776602 C25.2117518,5.84057389 25.2822478,5.87478519 25.3527448,5.92040093 L26.4288564,6.54865103 L26.1551633,7.01517338 L25.0790517,6.39314358 C25.0044078,6.34752783 24.9380586,6.30191277 24.8800022,6.25629702 C24.8219458,6.21068128 24.7701105,6.15262574 24.7244947,6.08212868 C24.7908449,6.21897592 24.8240195,6.37033499 24.8240195,6.53621043 L24.8240195,7.76782944 L24.2766333,7.76782944 L24.2766333,6.54243073 C24.2766333,6.45949301 24.2818168,6.38277677 24.292184,6.31227971 C24.3025411,6.2418514 24.3242796,6.17349352 24.3574001,6.10720402 L24.3496888,6.11683661 Z M29.9331469,6.11683661 C29.8896765,6.17093119 29.8425173,6.21949099 29.791668,6.26251732 C29.7377585,6.30813307 29.6755562,6.35167472 29.6050591,6.39314358 L28.5351679,7.00895308 L28.2614747,6.54243073 L29.331366,5.92040093 C29.4887491,5.82514271 29.6461299,5.77538612 29.8035131,5.77112967 C29.7093758,5.76047922 29.6356685,5.74558195 29.5646272,5.72446155 C29.4879098,5.70165367 29.4101568,5.66536896 29.331366,5.61560633 L28.2552544,4.98735623 L28.5289476,4.52083388 L29.6050591,5.14286368 C29.6797031,5.18847943 29.7460522,5.2361679 29.8041086,5.28593054 C29.862165,5.33569317 29.9140003,5.39582212 29.9596161,5.46631918 C29.8932659,5.32117817 29.8600913,5.16567227 29.8600913,4.99979683 L29.8600913,3.76817783 L30.4074775,3.76817783 L30.4074775,4.99357653 C30.4074775,5.07651425 30.402294,5.1542672 30.3919268,5.22683771 C30.3815697,5.29933774 30.359831,5.3687326 30.3267103,5.43502438 C30.3778798,5.3713093 30.4250448,5.32274229 30.4759008,5.27971024 C30.5298103,5.23409449 30.5920127,5.18847943 30.6625098,5.14286368 L31.732401,4.52705418 L32.0060941,4.99357653 L30.9362029,5.61560633 C30.8657058,5.66122208 30.7952098,5.69647008 30.7247127,5.7213514 C30.6542621,5.74621633 30.5796712,5.76279816 30.5009377,5.77109739 C30.586585,5.78088637 30.6575313,5.79603085 30.7247127,5.81776602 C30.7952098,5.84057389 30.8657058,5.87478519 30.9362029,5.92040093 L32.0123144,6.54865103 L31.7386213,7.01517338 L30.6625098,6.39314358 C30.5878658,6.34752783 30.5215166,6.30191277 30.4634602,6.25629702 C30.4054038,6.21068128 30.3535685,6.15262574 30.3079528,6.08212868 C30.374303,6.21897592 30.4074775,6.37033499 30.4074775,6.53621043 L30.4074775,7.76782944 L29.8600913,7.76782944 L29.8600913,6.54243073 C29.8600913,6.45949301 29.8652749,6.38277677 29.8756421,6.31227971 C29.8859992,6.2418514 29.9077377,6.17349352 29.9408582,6.10720402 L29.9331469,6.11683661 Z M35.5166049,6.11683661 C35.4731346,6.17093119 35.4259754,6.21949099 35.3751261,6.26251732 C35.3212166,6.30813307 35.2590142,6.35167472 35.1885171,6.39314358 L34.1186259,7.00895308 L33.8449328,6.54243073 L34.914824,5.92040093 C35.0722072,5.82514271 35.229588,5.77538612 35.3869711,5.77112967 C35.2928338,5.76047922 35.2191265,5.74558195 35.1480852,5.72446155 C35.0713678,5.70165367 34.9936149,5.66536896 34.914824,5.61560633 L33.8387125,4.98735623 L34.1124056,4.52083388 L35.1885171,5.14286368 C35.2631611,5.18847943 35.3295103,5.2361679 35.3875667,5.28593054 C35.4456231,5.33569317 35.4974584,5.39582212 35.5430741,5.46631918 C35.476724,5.32117817 35.4435494,5.16567227 35.4435494,4.99979683 L35.4435494,3.76817783 L35.9909356,3.76817783 L35.9909356,4.99357653 C35.9909356,5.07651425 35.9857521,5.1542672 35.9753848,5.22683771 C35.9650277,5.29933774 35.9432891,5.3687326 35.9101683,5.43502438 C35.9613378,5.3713093 36.0085028,5.32274229 36.0593589,5.27971024 C36.1132684,5.23409449 36.1754707,5.18847943 36.2459678,5.14286368 L37.3158591,4.52705418 L37.5895522,4.99357653 L36.5196609,5.61560633 C36.4491638,5.66122208 36.3786678,5.69647008 36.3081708,5.7213514 C36.2377201,5.74621633 36.1631292,5.76279816 36.0843957,5.77109739 C36.170043,5.78088637 36.2409894,5.79603085 36.3081708,5.81776602 C36.3786678,5.84057389 36.4491638,5.87478519 36.5196609,5.92040093 L37.5957725,6.54865103 L37.3220794,7.01517338 L36.2459678,6.39314358 C36.1713239,6.34752783 36.1049747,6.30191277 36.0469183,6.25629702 C35.9888619,6.21068128 35.9370266,6.15262574 35.8914108,6.08212868 C35.957761,6.21897592 35.9909356,6.37033499 35.9909356,6.53621043 L35.9909356,7.76782944 L35.4435494,7.76782944 L35.4435494,6.54243073 C35.4435494,6.45949301 35.4487329,6.38277677 35.4591001,6.31227971 C35.4694572,6.2418514 35.4911957,6.17349352 35.5243162,6.10720402 L35.5166049,6.11683661 Z" id="******"></path>
                </g>
                <path d="M293.338659,94.6733513 L146.901886,94.6733513 L146.901886,87.1574515 C146.901886,84.4346739 149.108961,82.2275983 151.830662,82.2275983 L288.409883,82.2275983 C291.131584,82.2275983 293.338659,84.4346739 293.338659,87.1574515 L293.338659,94.6733513 Z" id="Stroke-33" fill="#EDF1F5"></path>
                <path d="M288.488691,197.39657 L151.752284,197.39657 C149.073648,197.39657 146.902101,195.225023 146.902101,192.547464 L146.902101,87.0783198 C146.902101,84.3996836 149.073648,82.2281366 151.752284,82.2281366 L288.488691,82.2281366 C291.167328,82.2281366 293.338875,84.3996836 293.338875,87.0783198 L293.338875,192.547464 C293.338875,195.225023 291.167328,197.39657 288.488691,197.39657 Z" id="Stroke-31" stroke="#E1E4E7"></path>
                <path d="M153.772028,87.8870784 C153.772028,88.8334293 153.005473,89.5999844 152.059122,89.5999844 C151.112771,89.5999844 150.346216,88.8334293 150.346216,87.8870784 C150.346216,86.9418041 151.112771,86.1741724 152.059122,86.1741724 C153.005473,86.1741724 153.772028,86.9418041 153.772028,87.8870784" id="Fill-35" fill="#FF4733"></path>
                <path d="M160.231761,87.8870784 C160.231761,88.8334293 159.465206,89.5999844 158.518855,89.5999844 C157.572504,89.5999844 156.805949,88.8334293 156.805949,87.8870784 C156.805949,86.9418041 157.572504,86.1741724 158.518855,86.1741724 C159.465206,86.1741724 160.231761,86.9418041 160.231761,87.8870784" id="Fill-37" fill="#FCC135"></path>
                <path d="M166.691494,87.8870784 C166.691494,88.8334293 165.924939,89.5999844 164.978588,89.5999844 C164.032237,89.5999844 163.265682,88.8334293 163.265682,87.8870784 C163.265682,86.9418041 164.032237,86.1741724 164.978588,86.1741724 C165.924939,86.1741724 166.691494,86.9418041 166.691494,87.8870784" id="Fill-39" fill="#17BA2B"></path>
                <path d="M216.578308,107.399854 C187.746364,107.399854 165.656229,99.1626171 146.97791,81 C128.301744,99.1626171 106.213762,107.399854 77.3828953,107.399854 C77.3828953,154.700175 67.5963991,222.456319 146.976833,249.973707 C226.36588,222.457396 216.578308,154.700175 216.578308,107.399854 L216.578308,107.399854 Z" id="Fill-41" fill="#3572FC"></path>
                <g id="Group-4" transform="translate(145.137840, 81.594221)" fill="#020303" opacity="0.09162">
                    <g id="Group-3" transform="translate(-0.000000, -0.000000)">
                        <path d="M70.6741131,27.4747535 C41.8432462,27.4747535 19.7541878,19.2385934 1.0758686,1.07597626 L1.0758686,170.04753 C80.4606092,142.529065 70.6741131,74.7750748 70.6741131,27.4747535" id="Fill-1"></path>
                    </g>
                </g>
                <g id="key" transform="translate(131.000000, 138.000000)">
                    <path d="M5.32552985,35.75948 C5.32552985,31.6968488 5.31896745,27.6347224 5.33411145,23.572596 C5.33613065,23.0995983 5.22356023,22.7740022 4.83991216,22.4494158 C0.904490581,19.1142015 -0.597794515,13.8996165 0.941845789,9.03637233 C2.47290449,4.20139697 6.75411413,0.777337898 11.8576431,0.306359405 C17.2478986,-0.191878293 22.4372436,2.88689751 24.5508416,7.83696729 C26.7240061,12.9263619 25.4140498,18.7446878 21.2413722,22.3287685 C20.7547449,22.746743 20.6068385,23.1546215 20.6083529,23.7598768 C20.6250113,31.688772 20.6265257,39.6171624 20.6164297,47.5460575 C20.6118865,51.4274655 17.8460867,54.5910477 14.0111204,55.1427942 C9.44267946,55.8010535 5.34016906,52.2346408 5.32805385,47.5788695 C5.31694825,43.6389047 5.32552985,39.6994448 5.32552985,35.75948" id="Fill-26" fill="#FFFFFF"></path>
                    <path d="M10.1432747,23.572596 C10.1452939,23.0995983 10.0327235,22.7740022 9.64907543,22.4494158 C5.71365386,19.1142015 4.21136876,13.8996165 5.75100906,9.03637233 C7.28206776,4.20139697 11.5632774,0.777337898 16.6668064,0.306359405 C22.0570619,-0.191878293 27.2459021,2.88689751 29.3600049,7.83696729 C31.5331693,12.9263619 30.2232131,18.7446878 26.0505355,22.3287685 C25.5639082,22.746743 25.4160017,23.1546215 25.4175161,23.7598768 C25.4341745,31.688772 25.4356889,39.6171624 25.4255929,47.5460575 C25.4210497,51.4274655 22.65525,54.5910477 18.8202836,55.1427942 C14.2518427,55.8010535 10.1493323,52.2346408 10.1372171,47.5788695 C10.1261115,43.6389047 10.1346931,39.6994448 10.1346931,35.75948 C10.1346931,31.6968488 10.1281307,27.6347224 10.1432747,23.572596 Z" id="Fill-29" fill="#0C338A"></path>
                </g>
            </g>
        </g>
    </g>
</svg>